<svg width="1345" height="812" viewBox="0 0 1345 812" fill="none" xmlns="http://www.w3.org/2000/svg">
<mask id="mask0_34_167" style="mask-type:alpha" maskUnits="userSpaceOnUse" x="0" y="0" width="1345" height="812">
<path d="M404 335C404 335 74 335 54.5 335C35 335 1.00101 358.5 1 395.5C0.998991 432.5 28.0005 459 54.5 459.5C80.9995 460 212.5 459.5 231 459.5C249.5 459.5 263 477.5 263 498C263 518.5 250.5 537 231 537C199.994 538.106 180.5 523 180.5 505C180.5 487 180.5 449 180.5 449C190 409.5 216 390 245.5 388H355.5" stroke="black"/>
<path d="M183 175.5H421C433 175.5 450.241 158.302 450 145V126.5C452 105.5 469 101 481 101C493.5 101 510.118 105.466 515.5 126.5V168C516.202 182.033 527.354 192.31 546 193C561.5 193 575.501 183.658 576.5 163.5V59.5C578.5 23.5 592.5 12 619.5 1M712.5 1C737.417 16.9114 746.912 28.6828 750 58.5C750 58.5 751 83.5 750 98.5C749 113.5 728 128.711 714.5 128C701 127.289 683.5 117.5 681 98.5C678.5 79.5 690 61.5 708.5 59.5C727 57.5 936 56.5 953 58.5C970 60.5 980.276 71.3122 980 86.5C979.729 101.409 966 113.5 953 113.5C940 113.5 877.5 113.5 864 113.5C850.5 113.5 828.5 132 827.5 149C826.5 166 827 172 826 178C825 184 821.5 197.5 797.5 201.5C773.5 205.5 765 176 765.5 171C765 152.5 778.5 139.5 791.5 139.5C791.5 139.5 889.5 139 916 139.5C942.5 140 978.5 175.5 978.5 198.5L980 313C980 339.5 1015.5 375 1044 375H1163" stroke="black" stroke-linecap="round"/>
<circle cx="261.605" cy="96.0574" r="13.5" stroke="black" stroke-width="2"/>
<path d="M275.106 97.5576C278.606 112.058 294.606 111.557 296.606 99.0574C296.606 72.0571 277.106 60.0574 262.606 61.0576C240.189 61.8411 225.605 74.0574 227.106 99.0576C227.147 114.795 241.105 132.058 259.606 132.058H414.606" stroke="black" stroke-width="2" stroke-linecap="round"/>
<rect x="1028.5" y="102.5" width="67" height="15" rx="3.5" stroke="black"/>
<path d="M926.258 164.5C923.811 189.396 939.256 207.5 952.757 207.5H1152.26C1166.76 205.5 1180.26 191.5 1180.26 173C1180.26 156.5 1163.76 140 1152.26 140H1017.26" stroke="black"/>
<path d="M314.49 590.416C314.488 589.417 298.991 579.916 303.995 560.416C306.991 549.416 312.237 544.651 321.994 540.915C318.465 533.071 324.491 500.416 353.991 489.416C383.491 478.416 408.426 488.724 418.995 511.916C450.495 496.916 467.995 527.916 466.995 537.416C466.995 537.416 489.995 535.416 499.995 556.416C508.995 586.416 482.719 594.845 482.494 595.415" stroke="black"/>
<path d="M1122.5 331C1122.5 331 1252.5 331 1280.5 331C1308.5 331.001 1343 360 1343 404.5C1343 449 1295.5 470.5 1285.5 470.5C1275.5 470.5 1166 470.5 1140.5 470.5C1115 470.5 1078 500 1078 530.5C1078 561 1078 531.5 1078 550.5C1078 569.5 1048.5 611.5 1014 611.5C979.5 611.5 648.5 611.5 609.5 611.5C570.5 611.5 532 641.5 532 691.5C532 741.5 578.202 766.958 609.5 767.5C640.798 768.042 1074.5 767.5 1096.5 767.5C1118.5 767.5 1159 738.5 1159 705C1159 671.5 1159 653.5 1159 638C1159 622.5 1138 600.5 1115 600.5C1092 600.5 1070.5 617.5 1070.5 638C1070.5 658.5 1058.5 690.5 1026 691.5C993.5 692.5 826.5 691.5 826.5 691.5" stroke="black"/>
<rect x="938.5" y="500.5" width="210" height="30" rx="15" stroke="black"/>
<circle cx="956" cy="516" r="3.5" stroke="#01C38E"/>
<circle cx="968" cy="516" r="3.5" stroke="#01C38E"/>
<circle cx="980" cy="516" r="3.5" stroke="#01C38E"/>
<circle cx="992" cy="516" r="3.5" stroke="#01C38E"/>
<path d="M1078 535V577C1078 600.5 1106.93 638.424 1136 636.5H1263C1297.5 636.5 1344 676.5 1344 724C1344 795 1304 813.5 1263 810.5" stroke="black"/>
<rect x="1203.5" y="592.5" width="46" height="15" rx="3.5" stroke="black"/>
<path d="M575.876 653.572C575.876 653.572 789.964 652.285 801.876 653.572C813.788 654.86 824.376 669.572 824.376 684.072C824.376 698.573 809.876 711.572 801.876 711.572C793.876 711.572 470.376 711.572 470.376 711.572C436.952 712.039 440.357 672.391 448.376 664.072" stroke="black"/>
<path d="M150 761C150 761 417 761 427.5 761C438 761.001 454.5 769.501 456 787V810.5" stroke="black"/>
<path d="M272 682H96" stroke="black"/>
<rect x="268.5" y="706" width="52" height="12" rx="6" stroke="black"/>
<path d="M337 562H214.5C205 562 188 575 188 595C188 612 203 628 214.5 628H387.5C399.023 627.908 416.797 615.327 413 584.5" stroke="black"/>
<path d="M1078 310.441H1278.5C1283 310.441 1283 304.441 1281 301.441L1243 236.441C1241.5 233.441 1238 232.941 1236 236.441L1210 279.941" stroke="black"/>
<path d="M1239.5 255.941V275.941" stroke="black" stroke-width="2"/>
<circle cx="1239.5" cy="289.941" r="4" fill="#01C38E"/>
<circle cx="34.5" cy="527.5" r="11" stroke="black"/>
<circle cx="120" cy="157" r="5.5" stroke="black"/>
<circle cx="516.5" cy="60.5" r="5" stroke="black"/>
<path d="M228 328.438C229 315.938 243 304.438 255.5 304.438C255.5 304.438 388.009 301.202 410.5 304.438C432.991 307.674 437 323.938 437 336.938C437 349.938 425.268 366.877 410.5 368.938H255.5" stroke="black"/>
<path d="M609.003 152C609.003 130 612.5 128 633.003 128" stroke="black"/>
<path d="M684 152C684 130 680.503 128 660 128" stroke="black"/>
<path d="M684 180C684 202 680.503 204 660 204" stroke="black"/>
<path d="M609 180C609 202 612.497 204 633 204" stroke="black"/>
<circle cx="647" cy="168" r="4" fill="#01C38E"/>
<path d="M626.5 168.501C636 154.5 657 154 667 168.501" stroke="black"/>
</mask>
<g mask="url(#mask0_34_167)">
<rect x="197.708" y="-197.417" width="622" height="1072.55" transform="rotate(19.4106 197.708 -197.417)" fill="url(#paint0_linear_34_167)"/>
<rect x="581.518" y="474" width="394.035" height="585.279" transform="rotate(16.5296 581.518 474)" fill="url(#paint1_linear_34_167)"/>
<rect width="731.447" height="1141.1" transform="matrix(-0.96069 0.277622 0.277622 0.96069 1200.5 -186.991)" fill="url(#paint2_linear_34_167)"/>
</g>
<defs>
<linearGradient id="paint0_linear_34_167" x1="693.13" y1="854.602" x2="1180.56" y2="-223.818" gradientUnits="userSpaceOnUse">
<stop stop-color="#01C38E"/>
<stop offset="1" stop-color="#1001C5"/>
</linearGradient>
<linearGradient id="paint1_linear_34_167" x1="895.366" y1="1048.07" x2="1134.97" y2="432.659" gradientUnits="userSpaceOnUse">
<stop stop-color="#01C38E"/>
<stop offset="1" stop-color="#1001C5"/>
</linearGradient>
<linearGradient id="paint2_linear_34_167" x1="582.597" y1="1119.26" x2="1066.67" y2="-64.5316" gradientUnits="userSpaceOnUse">
<stop stop-color="#01C38E"/>
<stop offset="1" stop-color="#1001C5"/>
</linearGradient>
</defs>
</svg>
