<svg width="180" height="48" viewBox="0 0 180 48" fill="none" xmlns="http://www.w3.org/2000/svg">
<mask id="mask0_193_79" style="mask-type:alpha" maskUnits="userSpaceOnUse" x="0" y="4" width="178" height="42">
<path d="M74.2715 4.45021H65.2959C65.2959 17.6108 75.9653 28.2833 89.1289 28.2833V19.3076C80.9208 19.3076 74.2715 12.6554 74.2715 4.45021Z" fill="#01C38E" stroke="#333333" stroke-width="0.35197" stroke-miterlimit="10"/>
<path d="M65.0728 43.776V43.5512C65.0728 30.2856 75.8651 19.4933 89.1306 19.4933H89.3555V28.9186H89.1306C81.0634 28.9186 74.498 35.4839 74.498 43.5512V43.776H65.0728Z" fill="#01C38E"/>
<path d="M89.1299 19.7173V28.6929C80.9247 28.6929 74.2724 35.3422 74.2724 43.5503H65.2968C65.2968 30.3867 75.9693 19.7173 89.1299 19.7173ZM89.5796 19.2676H89.1299C75.7414 19.2676 64.8472 30.1619 64.8472 43.5503V44H74.7221V43.5503C74.7221 35.606 81.1855 29.1426 89.1299 29.1426H89.5796V19.2676Z" fill="#333333"/>
<path d="M15.729 43.5511H24.7046C24.7046 30.3905 14.0352 19.7181 0.871582 19.7181V28.6937C9.07974 28.6937 15.729 35.346 15.729 43.5511Z" fill="#01C38E" stroke="#333333" stroke-width="0.35197" stroke-miterlimit="10"/>
<path d="M0.643555 28.5078V19.0825H0.868395C8.93565 19.0825 15.501 12.5172 15.501 4.44991V4.22507H24.9263V4.44991C24.9263 17.7155 14.134 28.5078 0.868395 28.5078H0.643555Z" fill="#01C38E"/>
<path d="M24.7026 4.44968C24.7026 17.6133 14.0302 28.2827 0.869602 28.2827V19.3071C9.07476 19.3071 15.727 12.6578 15.727 4.44968H24.7026ZM25.1523 4H15.2773V4.44968C15.2773 12.394 8.81395 18.8574 0.869602 18.8574H0.419922V28.7324H0.869602C14.2581 28.7324 25.1523 17.8381 25.1523 4.44968V4Z" fill="#333333"/>
<path d="M38.915 20.8367H30.1162V38.674H38.915V20.8367Z" fill="#01C38E"/>
<path d="M45.7002 6.63845H53.8094V39.2672H53.4047C49.1537 39.2672 45.7002 35.8167 45.7002 31.5627V6.63845Z" fill="#01C38E"/>
<path d="M34.5171 6.63847H34.5141C32.0852 6.63847 30.1162 8.60747 30.1162 11.0363V11.0393C30.1162 13.4682 32.0852 15.4372 34.5141 15.4372H34.5171C36.946 15.4372 38.915 13.4682 38.915 11.0393V11.0363C38.915 8.60747 36.946 6.63847 34.5171 6.63847Z" fill="#01C38E"/>
<path d="M61.4517 30.9637H53.8071V39.2677H61.4517V30.9637Z" fill="#01C38E"/>
<path d="M60.7115 15.4363H53.0669V23.7734H60.7115V15.4363Z" fill="#01C38E"/>
<mask id="path-12-outside-1_193_79" maskUnits="userSpaceOnUse" x="98.5796" y="8" width="81" height="39" fill="black">
<rect fill="white" x="98.5796" y="8" width="81" height="39"/>
<path d="M112.404 38H99.9233V9.81641H112.189C117.482 9.81641 120.802 12.5312 120.802 16.8477C120.802 19.9336 118.498 22.5117 115.509 22.9609V23.1172C119.337 23.4102 122.15 26.2031 122.15 29.9336C122.15 34.8945 118.419 38 112.404 38ZM105.822 14.2109V21.5352H110.06C113.205 21.5352 115.001 20.1484 115.001 17.7656C115.001 15.5 113.419 14.2109 110.666 14.2109H105.822ZM105.822 33.6055H110.9C114.298 33.6055 116.134 32.1602 116.134 29.4648C116.134 26.8281 114.24 25.4219 110.763 25.4219H105.822V33.6055ZM125.158 38V9.81641H130.861V38H125.158ZM144.318 38.4492C137.99 38.4492 133.947 34.3867 133.947 27.5117C133.947 20.7344 138.048 16.6133 144.318 16.6133C150.587 16.6133 154.689 20.7148 154.689 27.5117C154.689 34.4062 150.646 38.4492 144.318 38.4492ZM144.318 34.0938C147.111 34.0938 148.888 31.7305 148.888 27.5312C148.888 23.3711 147.091 20.9688 144.318 20.9688C141.544 20.9688 139.728 23.3711 139.728 27.5312C139.728 31.7305 141.505 34.0938 144.318 34.0938ZM167.306 33.5469C170.158 33.5469 171.974 31.2812 171.974 27.4922C171.974 23.7227 170.158 21.3008 167.306 21.3008C164.494 21.3008 162.716 23.6836 162.716 27.4922C162.716 31.3203 164.474 33.5469 167.306 33.5469ZM167.208 45.8906C161.701 45.8906 157.97 43.2148 157.521 39.4844H163.107C163.556 40.9297 165.197 41.9258 167.365 41.9258C170.314 41.9258 171.955 40.2852 171.955 37.8633V34.1914H171.837C170.861 36.418 168.4 37.9414 165.373 37.9414C160.255 37.9414 156.876 33.9961 156.876 27.4531C156.876 20.8125 160.158 16.7305 165.47 16.7305C168.478 16.7305 170.841 18.3125 171.935 20.7148H172.033V17.0625H177.658V37.707C177.658 42.707 173.478 45.8906 167.208 45.8906Z"/>
</mask>
<path d="M112.404 38H99.9233V9.81641H112.189C117.482 9.81641 120.802 12.5312 120.802 16.8477C120.802 19.9336 118.498 22.5117 115.509 22.9609V23.1172C119.337 23.4102 122.15 26.2031 122.15 29.9336C122.15 34.8945 118.419 38 112.404 38ZM105.822 14.2109V21.5352H110.06C113.205 21.5352 115.001 20.1484 115.001 17.7656C115.001 15.5 113.419 14.2109 110.666 14.2109H105.822ZM105.822 33.6055H110.9C114.298 33.6055 116.134 32.1602 116.134 29.4648C116.134 26.8281 114.24 25.4219 110.763 25.4219H105.822V33.6055ZM125.158 38V9.81641H130.861V38H125.158ZM144.318 38.4492C137.99 38.4492 133.947 34.3867 133.947 27.5117C133.947 20.7344 138.048 16.6133 144.318 16.6133C150.587 16.6133 154.689 20.7148 154.689 27.5117C154.689 34.4062 150.646 38.4492 144.318 38.4492ZM144.318 34.0938C147.111 34.0938 148.888 31.7305 148.888 27.5312C148.888 23.3711 147.091 20.9688 144.318 20.9688C141.544 20.9688 139.728 23.3711 139.728 27.5312C139.728 31.7305 141.505 34.0938 144.318 34.0938ZM167.306 33.5469C170.158 33.5469 171.974 31.2812 171.974 27.4922C171.974 23.7227 170.158 21.3008 167.306 21.3008C164.494 21.3008 162.716 23.6836 162.716 27.4922C162.716 31.3203 164.474 33.5469 167.306 33.5469ZM167.208 45.8906C161.701 45.8906 157.97 43.2148 157.521 39.4844H163.107C163.556 40.9297 165.197 41.9258 167.365 41.9258C170.314 41.9258 171.955 40.2852 171.955 37.8633V34.1914H171.837C170.861 36.418 168.4 37.9414 165.373 37.9414C160.255 37.9414 156.876 33.9961 156.876 27.4531C156.876 20.8125 160.158 16.7305 165.47 16.7305C168.478 16.7305 170.841 18.3125 171.935 20.7148H172.033V17.0625H177.658V37.707C177.658 42.707 173.478 45.8906 167.208 45.8906Z" fill="#01C38E"/>
<path d="M99.9233 38H98.9233V39H99.9233V38ZM99.9233 9.81641V8.81641H98.9233V9.81641H99.9233ZM115.509 22.9609L115.361 21.972L114.509 22.1V22.9609H115.509ZM115.509 23.1172H114.509V24.0436L115.433 24.1143L115.509 23.1172ZM105.822 14.2109V13.2109H104.822V14.2109H105.822ZM105.822 21.5352H104.822V22.5352H105.822V21.5352ZM105.822 33.6055H104.822V34.6055H105.822V33.6055ZM105.822 25.4219V24.4219H104.822V25.4219H105.822ZM112.404 37H99.9233V39H112.404V37ZM100.923 38V9.81641H98.9233V38H100.923ZM99.9233 10.8164H112.189V8.81641H99.9233V10.8164ZM112.189 10.8164C114.675 10.8164 116.582 11.4543 117.848 12.4879C119.091 13.5033 119.802 14.9686 119.802 16.8477H121.802C121.802 14.4103 120.853 12.36 119.113 10.9389C117.395 9.53596 114.996 8.81641 112.189 8.81641V10.8164ZM119.802 16.8477C119.802 19.4255 117.873 21.5944 115.361 21.972L115.658 23.9498C119.122 23.429 121.802 20.4417 121.802 16.8477H119.802ZM114.509 22.9609V23.1172H116.509V22.9609H114.509ZM115.433 24.1143C118.795 24.3716 121.15 26.7794 121.15 29.9336H123.15C123.15 25.6268 119.88 22.4487 115.586 22.1201L115.433 24.1143ZM121.15 29.9336C121.15 32.1426 120.33 33.8669 118.895 35.0573C117.437 36.2653 115.25 37 112.404 37V39C115.574 39 118.259 38.182 120.171 36.597C122.104 34.9944 123.15 32.6855 123.15 29.9336H121.15ZM104.822 14.2109V21.5352H106.822V14.2109H104.822ZM105.822 22.5352H110.06V20.5352H105.822V22.5352ZM110.06 22.5352C111.761 22.5352 113.24 22.1624 114.318 21.3381C115.432 20.4856 116.001 19.2362 116.001 17.7656H114.001C114.001 18.6779 113.673 19.3132 113.102 19.7498C112.495 20.2146 111.503 20.5352 110.06 20.5352V22.5352ZM116.001 17.7656C116.001 16.3814 115.506 15.1889 114.5 14.3648C113.522 13.5645 112.183 13.2109 110.666 13.2109V15.2109C111.902 15.2109 112.731 15.5019 113.233 15.9125C113.705 16.2994 114.001 16.8842 114.001 17.7656H116.001ZM110.666 13.2109H105.822V15.2109H110.666V13.2109ZM105.822 34.6055H110.9V32.6055H105.822V34.6055ZM110.9 34.6055C112.719 34.6055 114.284 34.2216 115.411 33.3306C116.578 32.4087 117.134 31.0592 117.134 29.4648H115.134C115.134 30.5658 114.772 31.2866 114.172 31.7612C113.532 32.2667 112.479 32.6055 110.9 32.6055V34.6055ZM117.134 29.4648C117.134 27.8799 116.549 26.5517 115.352 25.6546C114.203 24.7923 112.613 24.4219 110.763 24.4219V26.4219C112.39 26.4219 113.486 26.7545 114.152 27.2546C114.773 27.7198 115.134 28.4131 115.134 29.4648H117.134ZM110.763 24.4219H105.822V26.4219H110.763V24.4219ZM104.822 25.4219V33.6055H106.822V25.4219H104.822ZM125.158 38H124.158V39H125.158V38ZM125.158 9.81641V8.81641H124.158V9.81641H125.158ZM130.861 9.81641H131.861V8.81641H130.861V9.81641ZM130.861 38V39H131.861V38H130.861ZM126.158 38V9.81641H124.158V38H126.158ZM125.158 10.8164H130.861V8.81641H125.158V10.8164ZM129.861 9.81641V38H131.861V9.81641H129.861ZM130.861 37H125.158V39H130.861V37ZM144.318 37.4492C141.373 37.4492 139.06 36.5091 137.48 34.8657C135.897 33.2182 134.947 30.7543 134.947 27.5117H132.947C132.947 31.1441 134.018 34.149 136.038 36.2515C138.063 38.3581 140.935 39.4492 144.318 39.4492V37.4492ZM134.947 27.5117C134.947 24.3252 135.908 21.8688 137.501 20.2149C139.092 18.5644 141.408 17.6133 144.318 17.6133V15.6133C140.958 15.6133 138.089 16.7227 136.061 18.8271C134.037 20.9281 132.947 23.9209 132.947 27.5117H134.947ZM144.318 17.6133C147.229 17.6133 149.545 18.5603 151.135 20.208C152.728 21.8589 153.689 24.3148 153.689 27.5117H155.689C155.689 23.9118 154.599 20.9184 152.574 18.8193C150.546 16.717 147.676 15.6133 144.318 15.6133V17.6133ZM153.689 27.5117C153.689 30.7647 152.738 33.228 151.156 34.8726C149.577 36.5132 147.264 37.4492 144.318 37.4492V39.4492C147.699 39.4492 150.572 38.3638 152.597 36.2593C154.618 34.1587 155.689 31.1532 155.689 27.5117H153.689ZM144.318 35.0938C146.035 35.0938 147.483 34.3487 148.465 32.9668C149.42 31.6238 149.888 29.7538 149.888 27.5312H147.888C147.888 29.5079 147.467 30.9192 146.835 31.8077C146.231 32.6571 145.394 33.0938 144.318 33.0938V35.0938ZM149.888 27.5312C149.888 25.3241 149.414 23.4562 148.458 22.1109C147.477 20.7295 146.032 19.9688 144.318 19.9688V21.9688C145.377 21.9688 146.217 22.4092 146.828 23.269C147.464 24.1649 147.888 25.5782 147.888 27.5312H149.888ZM144.318 19.9688C142.604 19.9688 141.155 20.7286 140.169 22.1085C139.208 23.4536 138.728 25.3221 138.728 27.5312H140.728C140.728 25.5803 141.156 24.1675 141.797 23.2713C142.412 22.4101 143.258 21.9688 144.318 21.9688V19.9688ZM138.728 27.5312C138.728 29.7537 139.196 31.6244 140.154 32.9679C141.141 34.3508 142.593 35.0938 144.318 35.0938V33.0938C143.23 33.0938 142.388 32.6551 141.782 31.8065C141.149 30.9186 140.728 29.508 140.728 27.5312H138.728ZM157.521 39.4844V38.4844H156.393L156.528 39.6039L157.521 39.4844ZM163.107 39.4844L164.062 39.1876L163.843 38.4844H163.107V39.4844ZM171.955 34.1914H172.955V33.1914H171.955V34.1914ZM171.837 34.1914V33.1914H171.184L170.922 33.7897L171.837 34.1914ZM171.935 20.7148L171.025 21.1292L171.292 21.7148H171.935V20.7148ZM172.033 20.7148V21.7148H173.033V20.7148H172.033ZM172.033 17.0625V16.0625H171.033V17.0625H172.033ZM177.658 17.0625H178.658V16.0625H177.658V17.0625ZM167.306 34.5469C169.024 34.5469 170.489 33.8506 171.498 32.5551C172.486 31.2876 172.974 29.5333 172.974 27.4922H170.974C170.974 29.2401 170.554 30.5132 169.921 31.3257C169.309 32.1104 168.44 32.5469 167.306 32.5469V34.5469ZM172.974 27.4922C172.974 25.4598 172.486 23.6797 171.508 22.3815C170.51 21.0554 169.048 20.3008 167.306 20.3008V22.3008C168.416 22.3008 169.288 22.7571 169.911 23.5844C170.554 24.4394 170.974 25.755 170.974 27.4922H172.974ZM167.306 20.3008C165.583 20.3008 164.138 21.0465 163.154 22.3721C162.192 23.6671 161.716 25.4466 161.716 27.4922H163.716C163.716 25.7292 164.129 24.4129 164.759 23.5645C165.367 22.7464 166.217 22.3008 167.306 22.3008V20.3008ZM161.716 27.4922C161.716 29.5439 162.186 31.2981 163.156 32.5634C164.15 33.861 165.599 34.5469 167.306 34.5469V32.5469C166.181 32.5469 165.335 32.1194 164.743 31.3467C164.126 30.5418 163.716 29.2686 163.716 27.4922H161.716ZM167.208 44.8906C161.958 44.8906 158.877 42.3797 158.514 39.3648L156.528 39.6039C157.064 44.05 161.444 46.8906 167.208 46.8906V44.8906ZM157.521 40.4844H163.107V38.4844H157.521V40.4844ZM162.152 39.7812C162.78 41.8014 164.949 42.9258 167.365 42.9258V40.9258C165.445 40.9258 164.332 40.058 164.062 39.1876L162.152 39.7812ZM167.365 42.9258C169.02 42.9258 170.432 42.4634 171.441 41.5404C172.458 40.609 172.955 39.3087 172.955 37.8633H170.955C170.955 38.8397 170.631 39.5706 170.09 40.0651C169.541 40.5679 168.658 40.9258 167.365 40.9258V42.9258ZM172.955 37.8633V34.1914H170.955V37.8633H172.955ZM171.955 33.1914H171.837V35.1914H171.955V33.1914ZM170.922 33.7897C170.132 35.5893 168.077 36.9414 165.373 36.9414V38.9414C168.723 38.9414 171.589 37.2467 172.753 34.5931L170.922 33.7897ZM165.373 36.9414C163.092 36.9414 161.26 36.0735 159.978 34.5155C158.679 32.9373 157.876 30.5619 157.876 27.4531H155.876C155.876 30.8873 156.763 33.7561 158.433 35.7862C160.12 37.8367 162.536 38.9414 165.373 38.9414V36.9414ZM157.876 27.4531C157.876 24.2853 158.66 21.8496 159.961 20.2273C161.242 18.6306 163.094 17.7305 165.47 17.7305V15.7305C162.534 15.7305 160.089 16.8714 158.401 18.9759C156.734 21.0547 155.876 23.9803 155.876 27.4531H157.876ZM165.47 17.7305C168.101 17.7305 170.1 19.0968 171.025 21.1292L172.845 20.3005C171.583 17.5282 168.855 15.7305 165.47 15.7305V17.7305ZM171.935 21.7148H172.033V19.7148H171.935V21.7148ZM173.033 20.7148V17.0625H171.033V20.7148H173.033ZM172.033 18.0625H177.658V16.0625H172.033V18.0625ZM176.658 17.0625V37.707H178.658V17.0625H176.658ZM176.658 37.707C176.658 39.8987 175.755 41.653 174.171 42.8842C172.562 44.1341 170.185 44.8906 167.208 44.8906V46.8906C170.501 46.8906 173.349 46.0554 175.398 44.4635C177.47 42.8529 178.658 40.5154 178.658 37.707H176.658Z" fill="#333333" mask="url(#path-12-outside-1_193_79)"/>
</mask>
<g mask="url(#mask0_193_79)">
<rect x="-2.58008" y="1" width="182" height="49" fill="url(#paint0_linear_193_79)"/>
</g>
<defs>
<linearGradient id="paint0_linear_193_79" x1="-35.5801" y1="26" x2="196.92" y2="26" gradientUnits="userSpaceOnUse">
<stop stop-color="#1C01C3"/>
<stop offset="1" stop-color="#01C38E"/>
</linearGradient>
</defs>
</svg>
